<mxfile host="app.diagrams.net" agent="Mozilla/5.0 (Windows NT 10.0; Win64; x64) AppleWebKit/537.36 (KHTML, like Gecko) Chrome/138.0.0.0 Safari/537.36" version="28.0.6">
  <diagram name="ページ1" id="yOySeQsgWKE3dEFuSRtI">
    <mxGraphModel dx="985" dy="859" grid="1" gridSize="10" guides="1" tooltips="1" connect="1" arrows="1" fold="1" page="1" pageScale="1" pageWidth="1654" pageHeight="1169" math="0" shadow="0">
      <root>
        <mxCell id="0" />
        <mxCell id="1" parent="0" />
        <mxCell id="cPUYNXmb6_sWoZT-htOv-3" value="" style="rounded=1;whiteSpace=wrap;html=1;dashed=1;dashPattern=12 12;" vertex="1" parent="1">
          <mxGeometry x="80" y="200" width="240" height="320" as="geometry" />
        </mxCell>
        <mxCell id="cPUYNXmb6_sWoZT-htOv-1" value="ポパーの３つの世界&lt;div&gt;３人が置かれる世界の構図&lt;/div&gt;" style="text;html=1;align=center;verticalAlign=middle;whiteSpace=wrap;rounded=0;fillColor=#dae8fc;strokeColor=#6c8ebf;" vertex="1" parent="1">
          <mxGeometry x="80" y="40" width="200" height="40" as="geometry" />
        </mxCell>
        <mxCell id="cPUYNXmb6_sWoZT-htOv-2" value="世界２" style="ellipse;whiteSpace=wrap;html=1;aspect=fixed;" vertex="1" parent="1">
          <mxGeometry x="160" y="240" width="80" height="80" as="geometry" />
        </mxCell>
        <mxCell id="cPUYNXmb6_sWoZT-htOv-5" value="世界１a" style="rounded=0;whiteSpace=wrap;html=1;" vertex="1" parent="1">
          <mxGeometry x="160" y="380" width="120" height="140" as="geometry" />
        </mxCell>
        <mxCell id="cPUYNXmb6_sWoZT-htOv-6" value="A" style="text;html=1;align=center;verticalAlign=middle;whiteSpace=wrap;rounded=0;fillColor=#d5e8d4;strokeColor=#82b366;" vertex="1" parent="1">
          <mxGeometry x="90" y="220" width="60" height="30" as="geometry" />
        </mxCell>
        <mxCell id="cPUYNXmb6_sWoZT-htOv-7" value="世界１b" style="rounded=0;whiteSpace=wrap;html=1;" vertex="1" parent="1">
          <mxGeometry x="80" y="580" width="800" height="40" as="geometry" />
        </mxCell>
        <mxCell id="cPUYNXmb6_sWoZT-htOv-8" value="世界３b" style="rounded=0;whiteSpace=wrap;html=1;" vertex="1" parent="1">
          <mxGeometry x="80" y="100" width="800" height="40" as="geometry" />
        </mxCell>
        <mxCell id="cPUYNXmb6_sWoZT-htOv-9" value="a : 個人に依存" style="rounded=0;whiteSpace=wrap;html=1;" vertex="1" parent="1">
          <mxGeometry x="400" y="40" width="120" height="40" as="geometry" />
        </mxCell>
        <mxCell id="cPUYNXmb6_sWoZT-htOv-10" value="b : 共通" style="rounded=0;whiteSpace=wrap;html=1;" vertex="1" parent="1">
          <mxGeometry x="560" y="40" width="120" height="40" as="geometry" />
        </mxCell>
        <mxCell id="cPUYNXmb6_sWoZT-htOv-11" value="" style="shape=flexArrow;endArrow=classic;html=1;rounded=0;" edge="1" parent="1">
          <mxGeometry width="50" height="50" relative="1" as="geometry">
            <mxPoint x="220" y="530" as="sourcePoint" />
            <mxPoint x="220" y="570" as="targetPoint" />
          </mxGeometry>
        </mxCell>
        <mxCell id="cPUYNXmb6_sWoZT-htOv-12" value="" style="shape=flexArrow;endArrow=classic;html=1;rounded=0;" edge="1" parent="1">
          <mxGeometry width="50" height="50" relative="1" as="geometry">
            <mxPoint x="180" y="570" as="sourcePoint" />
            <mxPoint x="180" y="530" as="targetPoint" />
          </mxGeometry>
        </mxCell>
        <mxCell id="cPUYNXmb6_sWoZT-htOv-13" value="" style="shape=flexArrow;endArrow=classic;html=1;rounded=0;" edge="1" parent="1">
          <mxGeometry width="50" height="50" relative="1" as="geometry">
            <mxPoint x="219.66" y="330" as="sourcePoint" />
            <mxPoint x="219.66" y="370" as="targetPoint" />
          </mxGeometry>
        </mxCell>
        <mxCell id="cPUYNXmb6_sWoZT-htOv-14" value="" style="shape=flexArrow;endArrow=classic;html=1;rounded=0;" edge="1" parent="1">
          <mxGeometry width="50" height="50" relative="1" as="geometry">
            <mxPoint x="179.66" y="370" as="sourcePoint" />
            <mxPoint x="179.66" y="330" as="targetPoint" />
          </mxGeometry>
        </mxCell>
        <mxCell id="cPUYNXmb6_sWoZT-htOv-15" value="身体" style="text;html=1;align=center;verticalAlign=middle;whiteSpace=wrap;rounded=0;" vertex="1" parent="1">
          <mxGeometry x="90" y="435" width="60" height="30" as="geometry" />
        </mxCell>
        <mxCell id="cPUYNXmb6_sWoZT-htOv-16" value="" style="shape=flexArrow;endArrow=classic;html=1;rounded=0;" edge="1" parent="1">
          <mxGeometry width="50" height="50" relative="1" as="geometry">
            <mxPoint x="219.58" y="150" as="sourcePoint" />
            <mxPoint x="219.58" y="190" as="targetPoint" />
          </mxGeometry>
        </mxCell>
        <mxCell id="cPUYNXmb6_sWoZT-htOv-17" value="" style="shape=flexArrow;endArrow=classic;html=1;rounded=0;" edge="1" parent="1">
          <mxGeometry width="50" height="50" relative="1" as="geometry">
            <mxPoint x="179.58" y="190" as="sourcePoint" />
            <mxPoint x="179.58" y="150" as="targetPoint" />
          </mxGeometry>
        </mxCell>
        <mxCell id="cPUYNXmb6_sWoZT-htOv-18" value="" style="rounded=1;whiteSpace=wrap;html=1;dashed=1;dashPattern=12 12;" vertex="1" parent="1">
          <mxGeometry x="360" y="200" width="240" height="320" as="geometry" />
        </mxCell>
        <mxCell id="cPUYNXmb6_sWoZT-htOv-19" value="世界２" style="ellipse;whiteSpace=wrap;html=1;aspect=fixed;" vertex="1" parent="1">
          <mxGeometry x="440" y="240" width="80" height="80" as="geometry" />
        </mxCell>
        <mxCell id="cPUYNXmb6_sWoZT-htOv-20" value="世界１a" style="rounded=0;whiteSpace=wrap;html=1;" vertex="1" parent="1">
          <mxGeometry x="440" y="380" width="120" height="140" as="geometry" />
        </mxCell>
        <mxCell id="cPUYNXmb6_sWoZT-htOv-21" value="B" style="text;html=1;align=center;verticalAlign=middle;whiteSpace=wrap;rounded=0;fillColor=#d5e8d4;strokeColor=#82b366;" vertex="1" parent="1">
          <mxGeometry x="370" y="220" width="60" height="30" as="geometry" />
        </mxCell>
        <mxCell id="cPUYNXmb6_sWoZT-htOv-22" value="" style="shape=flexArrow;endArrow=classic;html=1;rounded=0;" edge="1" parent="1">
          <mxGeometry width="50" height="50" relative="1" as="geometry">
            <mxPoint x="500" y="530" as="sourcePoint" />
            <mxPoint x="500" y="570" as="targetPoint" />
          </mxGeometry>
        </mxCell>
        <mxCell id="cPUYNXmb6_sWoZT-htOv-23" value="" style="shape=flexArrow;endArrow=classic;html=1;rounded=0;" edge="1" parent="1">
          <mxGeometry width="50" height="50" relative="1" as="geometry">
            <mxPoint x="460" y="570" as="sourcePoint" />
            <mxPoint x="460" y="530" as="targetPoint" />
          </mxGeometry>
        </mxCell>
        <mxCell id="cPUYNXmb6_sWoZT-htOv-24" value="" style="shape=flexArrow;endArrow=classic;html=1;rounded=0;" edge="1" parent="1">
          <mxGeometry width="50" height="50" relative="1" as="geometry">
            <mxPoint x="499.65999999999997" y="330" as="sourcePoint" />
            <mxPoint x="499.65999999999997" y="370" as="targetPoint" />
          </mxGeometry>
        </mxCell>
        <mxCell id="cPUYNXmb6_sWoZT-htOv-25" value="" style="shape=flexArrow;endArrow=classic;html=1;rounded=0;" edge="1" parent="1">
          <mxGeometry width="50" height="50" relative="1" as="geometry">
            <mxPoint x="459.65999999999997" y="370" as="sourcePoint" />
            <mxPoint x="459.65999999999997" y="330" as="targetPoint" />
          </mxGeometry>
        </mxCell>
        <mxCell id="cPUYNXmb6_sWoZT-htOv-26" value="身体" style="text;html=1;align=center;verticalAlign=middle;whiteSpace=wrap;rounded=0;" vertex="1" parent="1">
          <mxGeometry x="370" y="435" width="60" height="30" as="geometry" />
        </mxCell>
        <mxCell id="cPUYNXmb6_sWoZT-htOv-27" value="" style="shape=flexArrow;endArrow=classic;html=1;rounded=0;" edge="1" parent="1">
          <mxGeometry width="50" height="50" relative="1" as="geometry">
            <mxPoint x="499.58000000000004" y="150" as="sourcePoint" />
            <mxPoint x="499.58000000000004" y="190" as="targetPoint" />
          </mxGeometry>
        </mxCell>
        <mxCell id="cPUYNXmb6_sWoZT-htOv-28" value="" style="shape=flexArrow;endArrow=classic;html=1;rounded=0;" edge="1" parent="1">
          <mxGeometry width="50" height="50" relative="1" as="geometry">
            <mxPoint x="459.58000000000004" y="190" as="sourcePoint" />
            <mxPoint x="459.58000000000004" y="150" as="targetPoint" />
          </mxGeometry>
        </mxCell>
        <mxCell id="cPUYNXmb6_sWoZT-htOv-29" value="世界３a" style="rounded=1;whiteSpace=wrap;html=1;" vertex="1" parent="1">
          <mxGeometry x="450" y="390" width="90" height="40" as="geometry" />
        </mxCell>
        <mxCell id="cPUYNXmb6_sWoZT-htOv-30" value="世界３a" style="rounded=1;whiteSpace=wrap;html=1;" vertex="1" parent="1">
          <mxGeometry x="175" y="390" width="90" height="40" as="geometry" />
        </mxCell>
        <mxCell id="cPUYNXmb6_sWoZT-htOv-31" value="" style="rounded=1;whiteSpace=wrap;html=1;dashed=1;dashPattern=12 12;" vertex="1" parent="1">
          <mxGeometry x="640" y="200" width="240" height="320" as="geometry" />
        </mxCell>
        <mxCell id="cPUYNXmb6_sWoZT-htOv-32" value="世界２" style="ellipse;whiteSpace=wrap;html=1;aspect=fixed;" vertex="1" parent="1">
          <mxGeometry x="720" y="240" width="80" height="80" as="geometry" />
        </mxCell>
        <mxCell id="cPUYNXmb6_sWoZT-htOv-33" value="世界１a" style="rounded=0;whiteSpace=wrap;html=1;" vertex="1" parent="1">
          <mxGeometry x="720" y="380" width="120" height="140" as="geometry" />
        </mxCell>
        <mxCell id="cPUYNXmb6_sWoZT-htOv-34" value="C" style="text;html=1;align=center;verticalAlign=middle;whiteSpace=wrap;rounded=0;fillColor=#d5e8d4;strokeColor=#82b366;" vertex="1" parent="1">
          <mxGeometry x="650" y="220" width="60" height="30" as="geometry" />
        </mxCell>
        <mxCell id="cPUYNXmb6_sWoZT-htOv-35" value="" style="shape=flexArrow;endArrow=classic;html=1;rounded=0;" edge="1" parent="1">
          <mxGeometry width="50" height="50" relative="1" as="geometry">
            <mxPoint x="780" y="530" as="sourcePoint" />
            <mxPoint x="780" y="570" as="targetPoint" />
          </mxGeometry>
        </mxCell>
        <mxCell id="cPUYNXmb6_sWoZT-htOv-36" value="" style="shape=flexArrow;endArrow=classic;html=1;rounded=0;" edge="1" parent="1">
          <mxGeometry width="50" height="50" relative="1" as="geometry">
            <mxPoint x="740" y="570" as="sourcePoint" />
            <mxPoint x="740" y="530" as="targetPoint" />
          </mxGeometry>
        </mxCell>
        <mxCell id="cPUYNXmb6_sWoZT-htOv-37" value="" style="shape=flexArrow;endArrow=classic;html=1;rounded=0;" edge="1" parent="1">
          <mxGeometry width="50" height="50" relative="1" as="geometry">
            <mxPoint x="779.66" y="330" as="sourcePoint" />
            <mxPoint x="779.66" y="370" as="targetPoint" />
          </mxGeometry>
        </mxCell>
        <mxCell id="cPUYNXmb6_sWoZT-htOv-38" value="" style="shape=flexArrow;endArrow=classic;html=1;rounded=0;" edge="1" parent="1">
          <mxGeometry width="50" height="50" relative="1" as="geometry">
            <mxPoint x="739.66" y="370" as="sourcePoint" />
            <mxPoint x="739.66" y="330" as="targetPoint" />
          </mxGeometry>
        </mxCell>
        <mxCell id="cPUYNXmb6_sWoZT-htOv-39" value="身体" style="text;html=1;align=center;verticalAlign=middle;whiteSpace=wrap;rounded=0;" vertex="1" parent="1">
          <mxGeometry x="650" y="435" width="60" height="30" as="geometry" />
        </mxCell>
        <mxCell id="cPUYNXmb6_sWoZT-htOv-40" value="" style="shape=flexArrow;endArrow=classic;html=1;rounded=0;" edge="1" parent="1">
          <mxGeometry width="50" height="50" relative="1" as="geometry">
            <mxPoint x="779.58" y="150" as="sourcePoint" />
            <mxPoint x="779.58" y="190" as="targetPoint" />
          </mxGeometry>
        </mxCell>
        <mxCell id="cPUYNXmb6_sWoZT-htOv-41" value="" style="shape=flexArrow;endArrow=classic;html=1;rounded=0;" edge="1" parent="1">
          <mxGeometry width="50" height="50" relative="1" as="geometry">
            <mxPoint x="739.58" y="190" as="sourcePoint" />
            <mxPoint x="739.58" y="150" as="targetPoint" />
          </mxGeometry>
        </mxCell>
        <mxCell id="cPUYNXmb6_sWoZT-htOv-42" value="世界３a" style="rounded=1;whiteSpace=wrap;html=1;" vertex="1" parent="1">
          <mxGeometry x="730" y="390" width="90" height="40" as="geometry" />
        </mxCell>
      </root>
    </mxGraphModel>
  </diagram>
</mxfile>
